<?xml version="1.0" standalone="no"?>
<!DOCTYPE svg PUBLIC "-//W3C//DTD SVG 20010904//EN"
 "http://www.w3.org/TR/2001/REC-SVG-20010904/DTD/svg10.dtd">
<svg version="1.0" xmlns="http://www.w3.org/2000/svg"
 width="1024.000000pt" height="1024.000000pt" viewBox="0 0 1024.000000 1024.000000"
 preserveAspectRatio="xMidYMid meet">
<metadata>
Created by potrace 1.14, written by Peter Selinger 2001-2017
</metadata>
<g transform="translate(0.000000,1024.000000) scale(0.100000,-0.100000)"
fill="#000000" stroke="none">
<path d="M3055 10224 c-33 -8 -73 -22 -90 -31 -16 -9 -31 -16 -33 -14 -8 7
-117 -64 -166 -110 -47 -43 -140 -167 -141 -188 -1 -3 -6 -15 -12 -26 -18 -33
-42 -126 -47 -182 -2 -28 -7 -57 -11 -62 -3 -6 -1 -11 5 -11 8 0 8 -6 0 -20
-8 -14 -8 -20 0 -20 8 0 8 -6 0 -20 -8 -14 -8 -20 0 -20 8 0 8 -6 0 -20 -8
-14 -8 -20 0 -20 8 0 8 -6 0 -20 -8 -14 -8 -20 0 -20 8 0 8 -6 0 -20 -8 -14
-8 -20 0 -20 8 0 8 -6 0 -20 -8 -14 -8 -20 0 -20 8 0 8 -6 0 -20 -8 -14 -8
-20 0 -20 8 0 8 -6 0 -20 -8 -14 -8 -20 0 -20 8 0 8 -6 0 -20 -8 -14 -8 -20 0
-20 8 0 8 -6 0 -20 -8 -14 -8 -20 0 -20 8 0 8 -6 0 -20 -8 -14 -8 -20 0 -20 7
0 8 -6 1 -18 -7 -13 -7 -22 0 -29 8 -8 7 -13 0 -17 -8 -5 -8 -13 -1 -27 7 -12
7 -19 1 -19 -7 0 -7 -9 -2 -22 5 -13 4 -35 -1 -49 -8 -23 -13 -25 -41 -19 -18
3 -47 3 -64 -1 -18 -4 -33 -3 -33 1 0 5 -13 5 -30 0 -17 -5 -30 -5 -30 0 0 5
-12 5 -28 1 -15 -5 -37 -5 -49 0 -13 5 -25 4 -28 -1 -3 -6 -15 -6 -30 0 -15 6
-27 6 -30 0 -3 -6 -15 -6 -30 0 -15 6 -27 6 -30 0 -3 -6 -15 -6 -30 0 -15 6
-27 6 -30 0 -3 -6 -15 -6 -30 0 -15 6 -27 6 -30 0 -3 -6 -15 -6 -30 0 -15 6
-27 6 -30 0 -3 -6 -15 -6 -30 0 -15 6 -27 6 -30 0 -3 -6 -15 -6 -30 0 -15 6
-27 6 -30 0 -3 -6 -15 -6 -30 0 -15 6 -27 6 -30 0 -3 -6 -15 -6 -30 0 -15 6
-27 6 -30 0 -3 -6 -15 -6 -30 0 -15 6 -27 6 -30 0 -3 -5 -15 -6 -28 -1 -12 5
-31 5 -42 1 -11 -4 -28 -3 -37 2 -10 5 -18 5 -18 0 0 -4 -10 -8 -22 -9 -54 -2
-94 -7 -108 -14 -8 -4 -29 -9 -45 -12 -96 -15 -288 -116 -374 -196 -18 -17
-36 -31 -40 -32 -11 -1 -115 -128 -152 -187 -41 -65 -106 -208 -113 -249 -2
-15 -5 -28 -6 -28 -2 0 -4 -9 -6 -20 -1 -11 -6 -31 -10 -45 -4 -14 -9 -274
-11 -579 -4 -453 -2 -552 9 -548 7 2 23 0 36 -4 13 -5 22 -5 22 1 0 6 9 6 25
0 14 -5 25 -6 25 -2 0 9 65 6 80 -3 6 -3 10 -2 10 4 0 6 11 7 28 2 15 -4 39
-4 55 0 15 4 27 3 27 -2 0 -5 11 -4 25 1 17 6 25 6 25 -1 0 -6 6 -7 17 0 10 5
26 5 40 0 14 -5 23 -5 23 1 0 5 12 5 28 1 15 -4 39 -4 54 0 16 4 28 3 28 -2 0
-5 11 -4 25 1 17 6 25 6 25 -1 0 -6 6 -7 17 0 10 5 26 5 40 0 14 -5 23 -5 23
1 0 5 12 5 28 1 15 -4 39 -4 55 0 15 4 27 3 27 -2 0 -5 11 -4 25 1 17 6 25 6
25 -1 0 -6 6 -7 17 0 10 5 26 5 40 0 14 -5 23 -5 23 1 0 5 12 5 28 1 15 -4 39
-4 55 0 15 4 27 3 27 -2 0 -5 11 -4 25 1 17 6 25 6 25 -1 0 -6 6 -7 17 0 10 5
26 5 40 0 15 -5 23 -5 23 2 0 6 4 7 10 4 13 -8 113 -10 126 -3 5 3 18 2 29 -2
11 -4 30 -4 42 1 13 5 25 4 28 -2 4 -5 12 -6 18 -2 6 4 21 7 32 7 11 0 26 -3
32 -7 6 -4 14 -3 18 2 3 6 15 7 28 2 12 -5 31 -5 42 -1 11 4 25 3 32 -2 7 -5
14 -5 17 1 4 6 15 7 29 2 12 -5 32 -5 44 0 13 5 25 4 28 -2 4 -5 12 -6 18 -2
15 9 49 9 64 0 6 -4 14 -3 18 2 3 6 15 7 28 2 12 -5 31 -5 42 -1 11 4 25 3 32
-2 7 -5 14 -5 17 1 4 6 15 7 29 2 12 -5 32 -5 44 0 13 5 25 4 28 -2 4 -5 12
-6 18 -2 15 9 49 9 64 0 6 -4 14 -3 18 2 3 6 15 7 28 2 12 -5 32 -5 44 0 14 5
25 4 29 -2 3 -6 10 -6 17 -1 7 5 21 6 32 2 11 -4 30 -4 42 1 13 5 25 4 28 -2
4 -5 12 -6 18 -2 15 9 49 9 64 0 6 -4 14 -3 18 2 3 7 15 7 29 1 13 -5 26 -7
29 -4 9 9 62 11 85 2 13 -4 22 -4 22 2 0 6 9 6 25 0 14 -5 25 -6 25 -2 0 9 65
6 80 -3 6 -3 10 -2 10 4 0 6 11 7 28 2 15 -4 39 -4 55 0 15 4 27 3 27 -2 0 -5
11 -4 25 1 17 6 25 6 25 -1 0 -6 6 -7 17 0 10 5 26 5 40 0 14 -5 23 -5 23 1 0
5 12 5 28 1 15 -4 39 -4 55 0 15 4 27 3 27 -2 0 -5 11 -4 25 1 17 6 25 6 25
-1 0 -6 6 -7 17 0 10 5 26 5 40 0 14 -5 23 -5 23 1 0 5 12 5 28 1 15 -4 39 -4
55 0 15 4 27 3 27 -2 0 -5 11 -4 25 1 17 6 25 6 25 -1 0 -6 6 -7 17 0 10 5 26
5 40 0 14 -5 23 -5 23 1 0 5 12 5 28 1 15 -4 39 -4 55 0 15 4 27 3 27 -2 0 -5
11 -4 25 1 17 6 25 6 25 -1 0 -6 6 -7 17 0 10 5 26 5 40 0 15 -5 23 -5 23 2 0
6 4 7 10 4 13 -8 113 -10 126 -3 5 3 18 2 29 -2 11 -4 30 -4 42 1 13 5 25 4
28 -2 4 -5 12 -6 18 -2 6 4 21 7 32 7 11 0 26 -3 32 -7 6 -4 14 -3 18 2 3 6
15 7 28 2 12 -5 31 -5 42 -1 11 4 25 3 32 -2 7 -5 14 -5 17 1 4 6 15 7 29 2
12 -5 32 -5 44 0 13 5 25 4 28 -2 4 -5 12 -6 18 -2 15 9 49 9 64 0 6 -4 14 -3
18 2 3 7 15 7 29 1 13 -5 26 -6 29 -4 8 9 81 9 94 1 6 -4 14 -3 18 3 4 7 12 7
25 0 10 -6 21 -7 23 -3 6 9 59 9 73 0 6 -3 16 -2 24 3 8 5 21 5 31 -1 12 -6
20 -5 24 1 4 6 11 7 17 4 14 -9 113 -8 127 0 5 4 12 2 16 -4 4 -6 13 -7 23 -1
11 6 24 6 34 0 10 -6 19 -6 23 0 3 7 15 7 30 1 15 -6 27 -6 30 0 4 7 13 6 25
0 11 -6 21 -6 25 -1 3 5 17 6 33 2 15 -5 37 -5 49 0 13 5 25 4 28 -1 4 -6 13
-7 23 -1 11 6 24 6 34 0 11 -6 19 -6 23 1 4 7 12 7 25 0 11 -6 21 -6 25 -1 3
5 17 6 33 2 15 -5 37 -5 49 0 13 5 25 4 28 -1 4 -6 13 -7 23 -1 11 6 24 6 34
0 11 -6 19 -6 23 1 4 7 12 7 25 0 13 -7 21 -7 25 0 4 6 11 7 17 4 12 -8 188
-7 196 1 3 3 11 0 18 -6 8 -7 14 -7 19 1 4 7 12 7 25 0 10 -6 21 -7 23 -3 6 9
59 9 73 0 6 -3 16 -2 24 3 8 5 21 5 31 -1 12 -6 20 -5 24 1 4 6 11 7 17 4 14
-9 113 -8 127 0 5 4 12 2 16 -4 4 -6 13 -7 23 -1 11 6 24 6 34 0 10 -6 19 -6
23 0 3 7 15 7 30 1 15 -6 27 -6 30 0 4 7 13 6 25 0 11 -6 21 -6 25 -1 3 5 17
6 33 2 15 -5 37 -5 49 0 13 5 25 4 28 -1 4 -6 13 -7 23 -1 11 6 24 6 34 0 11
-6 19 -6 23 1 4 7 12 7 25 0 11 -6 21 -6 25 -1 3 5 17 6 33 2 15 -5 37 -5 49
0 13 5 25 4 28 -1 4 -6 13 -7 23 -1 11 6 24 6 34 0 11 -6 19 -6 23 1 4 7 12 7
25 0 13 -7 21 -7 25 0 4 6 11 7 17 4 12 -8 168 -8 175 0 3 3 16 1 29 -4 14 -6
24 -6 24 0 0 5 12 5 28 1 15 -5 37 -5 49 0 13 5 25 4 28 -1 4 -6 13 -7 23 -1
11 6 24 6 34 0 11 -6 19 -6 23 1 4 7 12 7 25 0 11 -6 21 -6 25 -1 3 5 17 6 33
2 15 -5 37 -5 49 0 13 5 25 4 28 -1 4 -6 13 -7 23 -1 11 6 24 6 34 0 11 -6 19
-6 23 1 4 7 12 7 25 0 11 -6 21 -6 25 -1 3 5 17 6 33 2 15 -5 37 -5 49 0 13 5
25 4 28 -1 4 -7 13 -6 25 0 13 7 21 7 25 0 4 -7 12 -7 25 0 13 7 21 7 25 0 4
-6 13 -7 23 -1 11 6 24 6 34 0 11 -6 19 -6 23 1 4 6 11 7 17 4 14 -9 113 -8
127 0 5 4 12 2 16 -4 4 -6 13 -7 23 -1 11 6 24 6 34 0 11 -6 19 -6 23 1 4 6
11 7 17 4 14 -9 113 -8 127 0 5 4 12 3 14 -1 6 -9 58 -9 73 -1 5 3 18 2 29 -2
11 -4 30 -4 42 1 13 5 25 4 28 -2 4 -5 12 -6 18 -2 15 9 49 9 64 0 6 -4 14 -3
18 2 3 6 15 7 28 2 12 -5 31 -5 42 -1 11 4 25 3 32 -2 7 -5 14 -5 17 1 4 6 15
7 29 2 12 -5 32 -5 44 0 13 5 25 4 28 -2 4 -5 12 -6 18 -2 15 9 49 9 64 0 6
-4 14 -3 18 2 3 6 15 7 28 2 12 -5 32 -5 45 0 l23 9 -4 547 c-2 302 -6 557 -9
568 -4 11 -11 41 -17 67 -73 317 -331 587 -658 688 -36 11 -69 17 -74 14 -5
-3 -9 -1 -9 3 0 8 -38 14 -97 16 -13 1 -23 5 -23 9 0 5 -8 5 -17 0 -10 -5 -27
-6 -38 -2 -11 4 -30 4 -42 -1 -13 -5 -25 -4 -28 1 -3 6 -15 6 -30 0 -14 -5
-27 -5 -30 0 -3 5 -18 5 -33 0 -16 -4 -36 -4 -45 1 -9 6 -18 5 -22 0 -3 -7
-15 -7 -30 -1 -15 6 -27 6 -30 0 -3 -5 -15 -6 -28 -1 -12 5 -32 5 -44 0 -13
-5 -25 -4 -28 1 -3 6 -15 6 -30 0 -14 -5 -27 -5 -30 0 -3 5 -18 5 -33 0 -16
-4 -36 -4 -45 1 -9 6 -18 5 -22 0 -3 -7 -15 -7 -30 -1 -15 6 -27 6 -30 -1 -4
-5 -11 -7 -16 -3 -13 8 -185 8 -198 -1 -6 -3 -11 -2 -11 4 0 7 -8 7 -25 1 -15
-6 -27 -6 -30 0 -3 6 -15 6 -31 0 -19 -8 -28 -6 -45 11 -15 15 -18 24 -9 34 8
9 8 15 0 20 -7 4 -7 12 0 25 7 13 7 21 0 25 -6 4 -7 12 -1 23 5 9 5 26 0 39
-5 14 -5 23 1 23 6 0 6 9 1 23 -5 12 -5 32 0 45 5 13 5 22 -1 22 -6 0 -6 9 0
25 6 16 6 25 0 25 -6 0 -6 9 0 25 5 14 6 25 2 25 -4 0 -7 11 -7 25 0 14 3 25
7 25 4 0 3 12 -2 26 -6 14 -7 23 -2 21 8 -6 7 116 -2 138 -3 8 -1 15 5 15 6 0
7 5 4 11 -4 5 -9 29 -11 52 -7 74 -10 93 -18 105 -4 7 -5 12 -1 12 3 0 -3 17
-14 38 -10 20 -19 40 -19 45 -2 16 -55 107 -64 107 -4 0 -8 6 -8 13 0 17 -94
107 -157 151 -29 20 -55 36 -57 36 -2 0 -21 8 -42 17 -22 9 -42 18 -46 19 -5
1 -9 2 -10 4 -2 1 -10 3 -18 5 -8 2 -28 6 -45 10 -104 25 -300 8 -370 -32 -16
-9 -31 -16 -33 -14 -8 7 -117 -64 -166 -110 -47 -43 -140 -167 -141 -188 -1
-3 -6 -15 -12 -26 -24 -45 -42 -117 -47 -188 -2 -26 -6 -50 -9 -53 -3 -3 -2
-17 3 -30 6 -14 6 -24 0 -24 -5 0 -5 -12 0 -30 5 -18 5 -32 -1 -36 -5 -3 -6
-12 0 -21 5 -9 5 -29 1 -45 -5 -15 -5 -30 0 -33 5 -3 5 -16 0 -30 -6 -15 -6
-27 0 -30 5 -3 6 -15 1 -28 -5 -12 -5 -32 0 -44 5 -13 5 -23 -1 -23 -5 0 -5
-13 0 -30 5 -18 5 -32 -1 -36 -5 -3 -6 -12 0 -21 5 -9 5 -29 1 -45 -5 -15 -5
-30 0 -33 6 -3 6 -15 0 -29 -5 -13 -5 -27 0 -32 4 -5 4 -19 0 -30 l-8 -22
-572 0 c-314 1 -573 -2 -577 -5 -3 -4 -14 -2 -24 3 -11 7 -20 7 -24 0 -3 -5
-15 -6 -28 -2 -24 9 -56 8 -81 -1 -8 -3 -18 -2 -21 3 -3 6 -15 6 -30 0 -14 -5
-27 -5 -30 0 -3 5 -18 5 -33 0 -16 -4 -36 -4 -45 1 -9 6 -18 5 -22 0 -3 -7
-15 -7 -30 -1 -15 6 -27 6 -30 0 -3 -5 -15 -6 -28 -1 -12 5 -32 5 -44 0 -13
-5 -25 -4 -28 1 -3 6 -15 6 -30 0 -14 -5 -27 -5 -30 0 -3 5 -18 5 -33 0 -16
-4 -36 -4 -45 1 -9 6 -18 5 -22 0 -3 -7 -15 -7 -30 -1 -15 6 -27 6 -30 0 -3
-5 -15 -6 -28 -1 -12 5 -32 5 -44 0 -13 -5 -25 -4 -28 1 -3 6 -15 6 -30 0 -14
-5 -27 -5 -30 0 -3 5 -18 5 -33 0 -16 -4 -36 -4 -45 1 -9 6 -18 5 -22 0 -3 -7
-15 -7 -30 -1 -15 6 -27 6 -30 0 -3 -5 -15 -6 -28 -1 -12 5 -32 5 -44 0 -13
-5 -25 -4 -28 1 -3 6 -15 6 -30 0 -14 -5 -27 -5 -30 0 -3 5 -18 5 -33 0 -16
-4 -36 -4 -45 1 -9 6 -18 5 -22 0 -3 -7 -15 -7 -30 -1 -14 5 -27 5 -30 1 -3
-5 -14 -7 -25 -4 -12 3 -19 8 -16 10 3 3 1 16 -4 29 -6 14 -6 26 0 29 7 4 7
13 0 24 -5 10 -7 21 -4 24 9 8 10 87 2 87 -4 0 -3 14 2 30 5 17 5 30 0 30 -5
0 -5 13 0 30 5 17 5 30 0 30 -5 0 -5 13 0 30 5 17 5 30 0 30 -5 0 -5 13 0 30
5 17 6 30 2 30 -8 0 -7 68 1 76 3 3 2 17 -3 30 -6 14 -6 24 0 24 5 0 5 12 0
30 -5 18 -5 32 1 36 5 3 7 10 3 15 -3 6 -8 29 -10 52 -5 49 -12 102 -14 102
-1 0 -3 8 -5 17 -6 32 -85 188 -95 188 -6 0 -10 6 -10 13 0 17 -94 107 -157
151 -29 20 -55 36 -57 36 -2 0 -21 8 -42 17 -22 9 -42 18 -46 19 -5 1 -9 2
-10 4 -2 1 -10 3 -18 5 -8 2 -28 6 -45 10 -57 14 -219 13 -280 -1z"/>
<path d="M667 6402 l-27 -3 0 -2772 c1 -2726 1 -2773 20 -2857 22 -94 28 -115
30 -115 1 0 3 -7 5 -15 1 -9 21 -54 44 -100 114 -234 304 -401 561 -492 30
-11 66 -21 80 -23 14 -2 48 -9 75 -14 33 -7 1284 -10 3665 -10 3711 0 3621 -1
3776 33 51 11 185 71 252 112 95 60 211 170 276 263 54 78 116 198 116 225 0
8 4 17 9 20 5 3 12 20 15 38 3 18 8 44 11 58 3 14 10 50 15 80 6 34 10 1120
10 2814 0 2424 -2 2757 -15 2753 -8 -4 -17 -2 -20 3 -3 5 -15 6 -28 1 -12 -5
-32 -5 -44 0 -13 5 -25 4 -28 -1 -3 -6 -15 -6 -30 0 -15 6 -27 6 -30 0 -3 -6
-15 -6 -30 0 -15 6 -27 6 -30 0 -3 -6 -15 -6 -30 0 -15 6 -27 6 -30 0 -3 -6
-15 -6 -30 0 -15 6 -27 6 -30 0 -3 -6 -15 -6 -30 0 -15 6 -27 6 -30 0 -3 -6
-15 -6 -30 0 -15 6 -27 6 -30 0 -3 -6 -15 -6 -30 0 -15 6 -27 6 -30 0 -3 -5
-16 -6 -28 -2 -24 8 -79 7 -103 -2 -8 -3 -14 -1 -14 4 0 5 -13 5 -30 0 -16 -5
-30 -5 -30 0 0 4 -16 4 -35 0 -19 -4 -37 -4 -40 0 -3 5 -19 5 -35 0 -17 -5
-32 -5 -35 0 -3 5 -16 5 -30 0 -15 -6 -25 -6 -25 0 0 5 -12 5 -30 0 -17 -5
-30 -5 -30 0 0 5 -13 5 -30 0 -16 -5 -30 -5 -30 0 0 4 -16 4 -35 0 -19 -4 -37
-4 -40 0 -3 5 -19 5 -35 0 -17 -5 -32 -5 -35 0 -3 5 -16 5 -30 0 -15 -6 -25
-6 -25 0 0 5 -12 5 -30 0 -17 -5 -30 -5 -30 0 0 5 -13 5 -30 0 -16 -5 -30 -5
-30 0 0 4 -16 4 -35 0 -19 -4 -37 -4 -40 0 -3 5 -19 5 -35 0 -17 -5 -32 -5
-35 0 -3 5 -16 5 -30 0 -15 -6 -25 -6 -25 0 0 5 -12 5 -30 0 -17 -5 -30 -5
-30 0 0 5 -13 5 -30 0 -17 -5 -30 -5 -30 0 0 4 -16 4 -35 0 -19 -4 -37 -4 -40
0 -3 5 -19 5 -35 0 -17 -5 -32 -5 -35 0 -3 5 -16 6 -28 2 -24 -9 -56 -8 -81 1
-8 3 -18 2 -21 -3 -3 -6 -15 -6 -30 0 -15 6 -27 6 -30 -1 -4 -5 -11 -6 -17 -3
-13 8 -1293 8 -1306 0 -6 -3 -13 -2 -17 3 -3 7 -15 7 -30 1 -15 -6 -27 -6 -30
0 -3 6 -15 6 -30 0 -15 -6 -27 -6 -30 0 -3 6 -15 6 -30 0 -15 -6 -27 -6 -30 0
-3 6 -15 6 -30 0 -15 -6 -27 -6 -30 0 -3 6 -15 6 -30 0 -15 -6 -27 -6 -30 0
-3 6 -15 6 -30 0 -15 -6 -27 -6 -30 0 -3 6 -15 6 -30 0 -15 -6 -27 -6 -30 0
-3 6 -15 6 -30 0 -15 -6 -27 -6 -30 0 -3 6 -15 6 -30 0 -15 -6 -27 -6 -30 0
-3 6 -15 6 -30 0 -15 -6 -27 -6 -30 0 -3 6 -15 6 -30 0 -15 -6 -27 -6 -30 0
-3 6 -15 6 -30 0 -15 -6 -27 -6 -30 0 -3 6 -15 6 -30 0 -15 -6 -27 -6 -30 0
-3 6 -15 6 -30 0 -15 -6 -27 -6 -30 0 -3 6 -15 6 -30 0 -15 -6 -27 -6 -30 0
-3 6 -15 6 -30 0 -15 -6 -27 -6 -30 0 -3 6 -15 6 -30 0 -13 -5 -26 -6 -29 -2
-3 5 -30 5 -61 2 -31 -3 -58 -3 -61 2 -3 4 -16 3 -29 -2 -15 -6 -27 -6 -30 0
-3 6 -15 6 -30 0 -15 -6 -27 -6 -30 0 -3 6 -15 6 -30 0 -15 -6 -27 -6 -30 0
-3 6 -15 6 -30 0 -15 -6 -27 -6 -30 0 -3 6 -15 6 -30 0 -15 -6 -27 -6 -30 0
-3 6 -15 6 -30 0 -15 -6 -27 -6 -30 0 -3 6 -15 6 -30 0 -15 -6 -27 -6 -30 0
-3 6 -15 6 -30 0 -15 -6 -27 -6 -30 0 -3 6 -15 6 -30 0 -15 -6 -27 -6 -30 0
-3 6 -15 6 -30 0 -15 -6 -27 -6 -30 0 -3 6 -15 6 -30 0 -15 -6 -27 -6 -30 0
-3 6 -15 6 -30 0 -15 -6 -27 -6 -30 0 -3 6 -15 6 -30 0 -15 -6 -27 -6 -30 0
-3 6 -15 6 -30 0 -15 -6 -27 -6 -30 0 -3 6 -15 6 -30 0 -15 -6 -27 -6 -30 0
-3 6 -15 6 -30 0 -15 -6 -27 -6 -30 0 -3 6 -15 6 -30 0 -14 -5 -27 -5 -30 0
-3 5 -18 5 -35 0 -17 -5 -30 -6 -30 -2 0 8 -1262 7 -1283 -1 -8 -3 -20 -1 -27
3 -8 5 -21 5 -30 0 -9 -5 -22 -5 -28 -1 -7 4 -33 5 -58 1 -24 -4 -47 -3 -50 1
-2 5 -16 4 -29 -1 -15 -6 -27 -6 -30 0 -3 6 -15 6 -30 0 -15 -6 -27 -6 -30 0
-3 6 -15 6 -30 0 -15 -6 -27 -6 -30 0 -3 6 -15 6 -30 0 -15 -6 -27 -6 -30 0
-3 6 -15 6 -30 0 -15 -6 -27 -6 -30 0 -3 6 -15 6 -30 0 -15 -6 -27 -6 -30 0
-3 6 -15 6 -30 0 -15 -6 -27 -6 -30 0 -3 6 -15 6 -30 0 -15 -6 -27 -6 -30 0
-3 6 -15 6 -30 0 -15 -6 -27 -6 -30 0 -3 6 -15 6 -30 0 -15 -6 -27 -6 -30 0
-3 6 -15 6 -30 0 -15 -6 -27 -6 -30 0 -3 6 -15 6 -30 0 -15 -6 -27 -6 -30 0
-3 6 -15 6 -30 0 -15 -6 -27 -6 -30 0 -3 6 -15 6 -30 0 -15 -6 -27 -6 -30 0
-3 6 -15 6 -30 0 -15 -6 -27 -6 -30 0 -3 6 -15 6 -30 0 -15 -6 -27 -6 -30 0
-3 6 -15 6 -30 0 -14 -5 -27 -5 -30 0 -3 5 -18 5 -35 0 -17 -5 -30 -6 -30 -2
0 7 -697 10 -753 4z m6346 -1463 c31 -7 57 -17 57 -20 0 -4 14 -12 30 -18 43
-14 120 -77 158 -127 31 -42 75 -119 78 -139 1 -5 7 -30 12 -54 10 -41 10
-176 0 -211 -15 -55 -35 -102 -64 -147 -35 -55 -2333 -2363 -2353 -2363 -6 0
-11 -4 -11 -8 0 -10 -70 -49 -125 -69 -91 -34 -284 -21 -352 23 -13 8 -23 12
-23 8 0 -7 -59 35 -95 68 -58 51 -84 78 -77 78 4 0 0 5 -8 10 -27 17 -637 630
-632 635 3 3 1 5 -4 5 -6 0 -145 135 -310 301 -347 349 -324 325 -324 337 0 6
-3 12 -7 14 -8 3 -44 74 -58 113 -25 67 -22 216 4 294 23 65 81 159 123 197
41 37 130 94 157 101 14 3 31 8 36 12 32 18 186 22 249 5 68 -18 140 -50 156
-69 7 -8 16 -15 21 -15 5 0 230 -221 500 -491 l491 -491 967 966 c531 531 989
981 1016 999 44 29 120 58 180 70 38 7 150 0 208 -14z"/>
</g>
</svg>
